<svg width="21" height="24" viewBox="0 0 21 24" fill="none" xmlns="http://www.w3.org/2000/svg">
<g clip-path="url(#clip0)">
<path d="M12.3694 9.59914L20.6119 2.06314C20.86 1.83638 20.9993 1.52882 20.9993 1.20814C20.9993 0.887448 20.86 0.579895 20.6119 0.353135C20.3639 0.126375 20.0275 -0.00101757 19.6768 -0.00101757C19.326 -0.00101757 18.9896 0.126375 18.7416 0.353135L10.4991 7.88914L2.25663 0.353135C2.00861 0.126375 1.67222 -0.00101756 1.32147 -0.00101755C0.970721 -0.00101755 0.634336 0.126375 0.386317 0.353135C0.138298 0.579895 -0.00103757 0.887448 -0.00103758 1.20814C-0.00103758 1.52882 0.138298 1.83638 0.386317 2.06314L8.62882 9.59914L0.386317 17.1351C0.138298 17.3619 -0.0010376 17.6694 -0.0010376 17.9901C-0.0010376 18.3108 0.138298 18.6184 0.386317 18.8451C0.634336 19.0719 0.970721 19.1993 1.32147 19.1993C1.67222 19.1993 2.00861 19.0719 2.25663 18.8451L10.4991 11.3091L18.7416 18.8451C18.9896 19.0719 19.326 19.1993 19.6768 19.1993C20.0275 19.1993 20.3639 19.0719 20.6119 18.8451C20.86 18.6184 20.9993 18.3108 20.9993 17.9901C20.9993 17.6694 20.86 17.3619 20.6119 17.1351L12.3694 9.59914Z" fill="black"/>
</g>
<defs>
<clipPath id="clip0">
<rect width="21" height="24" fill="white"/>
</clipPath>
</defs>
</svg>
