<svg width="303" height="304" viewBox="0 0 303 304" fill="none" xmlns="http://www.w3.org/2000/svg">
<g clip-path="url(#clip0)">
<path d="M29.1383 256.093L26.4697 245.566C21.7382 243.56 16.8974 241.822 11.9703 240.362L11.6335 245.255L10.2675 239.864C4.15703 238.117 0 237.348 0 237.348C0 237.348 5.61376 258.707 17.3921 275.036L31.1149 277.447L20.454 278.985C21.9356 280.768 23.5278 282.456 25.2213 284.04C42.3534 299.947 61.4357 307.246 67.8423 300.341C74.2489 293.436 65.5541 274.944 48.422 259.039C43.1109 254.107 36.439 250.15 29.7603 247.035L29.1383 256.093Z" fill="#F2F2F2"/>
<path d="M54.5166 244.658L57.6725 234.266C54.6589 230.103 51.4129 226.112 47.9501 222.315L45.1334 226.329L46.7492 221.008C42.4205 216.354 39.2593 213.547 39.2593 213.547C39.2593 213.547 33.0293 234.734 34.6727 254.802L45.1741 263.962L35.2516 259.766C35.5988 262.059 36.0898 264.328 36.7217 266.559C43.1678 289.035 55.7316 305.149 64.7836 302.551C73.8356 299.954 75.9485 279.628 69.5025 257.152C67.5043 250.184 63.8374 243.347 59.73 237.227L54.5166 244.658Z" fill="#F2F2F2"/>
<path d="M211.432 72.0178H209.767V26.4021C209.767 22.935 209.085 19.5017 207.758 16.2985C206.432 13.0952 204.488 10.1847 202.037 7.73301C199.586 5.28135 196.676 3.33658 193.474 2.00975C190.271 0.682914 186.839 4.76837e-06 183.373 4.76837e-06H86.7567C79.7565 4.76837e-06 73.0431 2.78165 68.0932 7.73301C63.1434 12.6844 60.3626 19.3999 60.3626 26.4021V276.658C60.3626 280.125 61.0453 283.558 62.3717 286.761C63.6982 289.964 65.6423 292.875 68.0932 295.327C70.5442 297.778 73.4538 299.723 76.6561 301.05C79.8584 302.377 83.2905 303.06 86.7567 303.06H183.373C190.373 303.06 197.087 300.278 202.036 295.326C206.986 290.375 209.767 283.66 209.767 276.658V104.488H211.431L211.432 72.0178Z" fill="#E6E6E6"/>
<path d="M184.438 6.86636H171.828C172.408 8.28878 172.629 9.83206 172.472 11.3602C172.315 12.8884 171.785 14.3546 170.929 15.6295C170.072 16.9045 168.915 17.9491 167.56 18.6714C166.204 19.3937 164.692 19.7715 163.156 19.7714H107.806C106.27 19.7713 104.758 19.3935 103.403 18.6711C102.048 17.9488 100.891 16.9041 100.034 15.6292C99.1775 14.3542 98.6475 12.8881 98.4908 11.36C98.3341 9.83193 98.5554 8.28872 99.1354 6.86636H87.3563C82.1286 6.86636 77.1151 8.94367 73.4186 12.6413C69.7221 16.3389 67.6454 21.354 67.6454 26.5832V276.475C67.6454 281.704 69.7221 286.719 73.4186 290.417C77.1151 294.115 82.1286 296.192 87.3563 296.192H184.438C189.666 296.192 194.679 294.115 198.376 290.417C202.072 286.719 204.149 281.704 204.149 276.475V26.5828C204.149 21.3536 202.072 16.3387 198.376 12.6411C194.679 8.94361 189.666 6.86636 184.438 6.86636Z" fill="white"/>
<path d="M123.526 106.411C123.526 104.664 123.986 102.948 124.859 101.435C125.732 99.9228 126.989 98.667 128.501 97.7945C126.989 96.921 125.274 96.461 123.528 96.4608C121.782 96.4606 120.067 96.9202 118.555 97.7934C117.043 98.6666 115.787 99.9225 114.914 101.435C114.041 102.948 113.581 104.663 113.581 106.41C113.581 108.157 114.041 109.872 114.914 111.385C115.787 112.897 117.043 114.153 118.555 115.027C120.067 115.9 121.782 116.359 123.528 116.359C125.274 116.359 126.989 115.899 128.501 115.025C126.989 114.153 125.733 112.898 124.859 111.385C123.986 109.873 123.526 108.157 123.526 106.411Z" fill="#CCCCCC"/>
<path d="M136.03 106.411C136.03 104.664 136.489 102.948 137.363 101.435C138.236 99.9227 139.492 98.667 141.005 97.7945C139.493 96.921 137.778 96.461 136.032 96.4608C134.286 96.4606 132.571 96.9202 131.058 97.7934C129.546 98.6666 128.29 99.9225 127.417 101.435C126.544 102.948 126.085 104.663 126.085 106.41C126.085 108.157 126.544 109.872 127.417 111.385C128.29 112.897 129.546 114.153 131.058 115.027C132.571 115.9 134.286 116.359 136.032 116.359C137.778 116.359 139.493 115.899 141.005 115.025C139.492 114.153 138.236 112.898 137.363 111.385C136.49 109.873 136.03 108.157 136.03 106.411Z" fill="#CCCCCC"/>
<path d="M148.25 116.359C153.743 116.359 158.196 111.905 158.196 106.41C158.196 100.915 153.743 96.461 148.25 96.461C142.757 96.461 138.304 100.915 138.304 106.41C138.304 111.905 142.757 116.359 148.25 116.359Z" fill="#301E73"/>
<path d="M164.872 137.485H106.904C106.352 137.485 105.823 137.265 105.433 136.875C105.043 136.484 104.823 135.955 104.822 135.403V77.4172C104.823 76.8652 105.043 76.3359 105.433 75.9456C105.823 75.5552 106.352 75.3356 106.904 75.335H164.872C165.424 75.3356 165.953 75.5552 166.343 75.9456C166.734 76.3359 166.953 76.8652 166.954 77.4172V135.403C166.953 135.955 166.734 136.484 166.343 136.875C165.953 137.265 165.424 137.485 164.872 137.485ZM106.904 76.1684C106.573 76.1687 106.255 76.3004 106.021 76.5346C105.787 76.7688 105.655 77.0864 105.655 77.4176V135.404C105.655 135.735 105.787 136.052 106.021 136.287C106.255 136.521 106.573 136.653 106.904 136.653H164.872C165.203 136.653 165.521 136.521 165.755 136.287C165.989 136.052 166.121 135.735 166.121 135.404V77.4176C166.121 77.0864 165.989 76.7688 165.755 76.5346C165.521 76.3004 165.203 76.1687 164.872 76.1684H106.904Z" fill="#CCCCCC"/>
<path d="M177.816 181.934H88.9098V182.767H177.816V181.934Z" fill="#CCCCCC"/>
<path d="M91.7175 176.734C93.2682 176.734 94.5252 175.477 94.5252 173.925C94.5252 172.374 93.2682 171.117 91.7175 171.117C90.1669 171.117 88.9098 172.374 88.9098 173.925C88.9098 175.477 90.1669 176.734 91.7175 176.734Z" fill="#301E73"/>
<path d="M177.816 210.018H88.9098V210.851H177.816V210.018Z" fill="#CCCCCC"/>
<path d="M91.7175 204.818C93.2682 204.818 94.5252 203.561 94.5252 202.01C94.5252 200.459 93.2682 199.201 91.7175 199.201C90.1669 199.201 88.9098 200.459 88.9098 202.01C88.9098 203.561 90.1669 204.818 91.7175 204.818Z" fill="#301E73"/>
<path d="M176.189 241.999H148.092C147.607 241.999 147.141 241.805 146.798 241.462C146.455 241.119 146.262 240.653 146.261 240.168V230.317C146.262 229.832 146.455 229.366 146.798 229.023C147.141 228.68 147.607 228.487 148.092 228.486H176.189C176.674 228.487 177.139 228.68 177.482 229.023C177.826 229.366 178.019 229.832 178.019 230.317V240.168C178.019 240.653 177.826 241.119 177.482 241.462C177.139 241.805 176.674 241.999 176.189 241.999Z" fill="#301E73"/>
<path d="M100.876 176.734C102.427 176.734 103.684 175.477 103.684 173.925C103.684 172.374 102.427 171.117 100.876 171.117C99.3254 171.117 98.0684 172.374 98.0684 173.925C98.0684 175.477 99.3254 176.734 100.876 176.734Z" fill="#301E73"/>
<path d="M110.035 176.734C111.585 176.734 112.842 175.477 112.842 173.925C112.842 172.374 111.585 171.117 110.035 171.117C108.484 171.117 107.227 172.374 107.227 173.925C107.227 175.477 108.484 176.734 110.035 176.734Z" fill="#301E73"/>
<path d="M100.876 204.818C102.427 204.818 103.684 203.561 103.684 202.01C103.684 200.459 102.427 199.201 100.876 199.201C99.3254 199.201 98.0684 200.459 98.0684 202.01C98.0684 203.561 99.3254 204.818 100.876 204.818Z" fill="#301E73"/>
<path d="M110.035 204.818C111.585 204.818 112.842 203.561 112.842 202.01C112.842 200.459 111.585 199.201 110.035 199.201C108.484 199.201 107.227 200.459 107.227 202.01C107.227 203.561 108.484 204.818 110.035 204.818Z" fill="#301E73"/>
<path d="M301.868 304H9.79562C9.17037 304 8.66391 303.778 8.66391 303.504C8.66391 303.231 9.17037 303.008 9.79562 303.008H301.868C302.493 303.008 303 303.231 303 303.504C303 303.778 302.493 304 301.868 304Z" fill="#3F3D56"/>
<path d="M229.707 199.171C229.907 199.263 230.099 199.37 230.281 199.492L248.527 191.702L249.178 186.894L256.468 186.849L256.038 197.876L231.956 204.247C231.905 204.414 231.844 204.579 231.774 204.739C231.425 205.482 230.865 206.105 230.164 206.531C229.463 206.957 228.651 207.166 227.831 207.132C227.012 207.098 226.22 206.823 225.556 206.34C224.893 205.858 224.386 205.19 224.101 204.421C223.815 203.651 223.763 202.815 223.951 202.016C224.14 201.217 224.56 200.492 225.159 199.931C225.758 199.37 226.509 198.999 227.318 198.863C228.127 198.728 228.959 198.835 229.707 199.171Z" fill="#FFB8B8"/>
<path d="M259.12 299.094H254.133L251.76 279.852L259.121 279.852L259.12 299.094Z" fill="#FFB8B8"/>
<path d="M250.57 297.669H260.188V303.726H244.514C244.514 302.12 245.152 300.579 246.288 299.443C247.424 298.307 248.964 297.669 250.57 297.669Z" fill="#2F2E41"/>
<path d="M278.516 297.685L273.553 298.174L269.305 279.257L276.63 278.535L278.516 297.685Z" fill="#FFB8B8"/>
<path d="M269.868 297.104L279.44 296.161L280.033 302.19L264.435 303.727C264.357 302.935 264.436 302.136 264.666 301.374C264.897 300.613 265.276 299.905 265.78 299.29C266.285 298.675 266.905 298.165 267.607 297.79C268.308 297.415 269.076 297.182 269.868 297.104Z" fill="#2F2E41"/>
<path d="M260.508 166.485C266.026 166.485 270.499 162.01 270.499 156.49C270.499 150.971 266.026 146.496 260.508 146.496C254.99 146.496 250.517 150.971 250.517 156.49C250.517 162.01 254.99 166.485 260.508 166.485Z" fill="#FFB8B8"/>
<path d="M253.018 295.203C252.59 295.204 252.174 295.054 251.846 294.778C251.517 294.503 251.296 294.121 251.222 293.698C248.641 279.364 240.203 232.496 240.001 231.197C239.997 231.167 239.995 231.137 239.995 231.107V227.612C239.994 227.485 240.034 227.361 240.108 227.258L241.223 225.696C241.276 225.621 241.346 225.559 241.426 225.515C241.507 225.471 241.596 225.446 241.688 225.442C248.043 225.144 268.856 224.27 269.861 225.527C270.871 226.79 270.514 230.616 270.432 231.37L270.436 231.449L279.787 291.264C279.86 291.741 279.742 292.228 279.46 292.619C279.177 293.01 278.751 293.274 278.276 293.353L272.435 294.316C272 294.386 271.555 294.297 271.18 294.066C270.805 293.835 270.525 293.477 270.391 293.057C268.585 287.284 262.528 267.862 260.429 260.346C260.416 260.299 260.386 260.258 260.345 260.231C260.303 260.203 260.254 260.192 260.205 260.199C260.156 260.206 260.111 260.231 260.079 260.268C260.047 260.306 260.03 260.354 260.03 260.403C260.135 267.567 260.389 285.845 260.476 292.158L260.485 292.838C260.489 293.298 260.32 293.743 260.012 294.085C259.704 294.426 259.279 294.64 258.821 294.683L253.189 295.195C253.132 295.2 253.075 295.203 253.018 295.203Z" fill="#2F2E41"/>
<path d="M254.167 170.415C252.423 171.451 251.38 173.357 250.781 175.296C249.673 178.885 249.006 182.596 248.795 186.347L248.162 197.578L240.329 227.353C247.118 233.099 251.034 231.793 260.173 227.093C269.311 222.393 270.355 228.66 270.355 228.66L272.183 203.326L274.794 175.642C274.208 174.936 273.545 174.298 272.816 173.74C270.403 171.863 267.595 170.558 264.604 169.924C261.614 169.29 258.518 169.343 255.551 170.08L254.167 170.415Z" fill="#301E73"/>
<path d="M251.623 205.185C251.834 205.264 252.038 205.36 252.233 205.471L270.274 196.439L270.573 191.545L278.015 191.032L278.414 202.187L254.305 210.162C254.108 211.007 253.659 211.771 253.017 212.354C252.375 212.937 251.571 213.311 250.712 213.426C249.852 213.54 248.978 213.391 248.206 212.996C247.434 212.602 246.8 211.982 246.389 211.219C245.977 210.455 245.808 209.585 245.903 208.723C245.999 207.861 246.354 207.048 246.922 206.393C247.49 205.738 248.244 205.272 249.084 205.056C249.924 204.84 250.809 204.885 251.623 205.185Z" fill="#FFB8B8"/>
<path d="M274.663 175.769C279.102 177.336 279.884 194.314 279.884 194.314C274.662 191.441 268.395 196.142 268.395 196.142C268.395 196.142 267.09 191.702 265.523 185.956C265.05 184.34 264.994 182.63 265.359 180.986C265.724 179.342 266.499 177.817 267.612 176.553C267.612 176.553 270.225 174.201 274.663 175.769Z" fill="#301E73"/>
<path d="M269.467 159.134C268.222 158.137 266.524 159.948 266.524 159.948L265.528 150.982C265.528 150.982 259.303 151.728 255.32 150.733C251.336 149.739 250.714 154.345 250.714 154.345C250.508 152.484 250.467 150.609 250.589 148.741C250.838 146.5 254.075 144.258 259.801 142.764C265.528 141.269 268.515 147.745 268.515 147.745C272.499 149.737 270.712 160.13 269.467 159.134Z" fill="#2F2E41"/>
</g>
<defs>
<clipPath id="clip0">
<rect width="303" height="304" fill="white"/>
</clipPath>
</defs>
</svg>
